<svg id="Ebene_1" data-name="Ebene 1" xmlns="http://www.w3.org/2000/svg" viewBox="0 0 182 182"><defs><style>.cls-1{fill:#132063;}</style></defs><title>logo-dsgvo-complete-white</title><path class="cls-1" d="M181.58,32.52c-4.94-1.1-9.88-2.19-14.82-3.31a247.9,247.9,0,0,1-44.49-15c-8.77-3.82-17.89-7-26.85-10.53h0L91.28,1.55,87.11,3.7C76.82,7.77,66.43,11.67,56.27,16a248.14,248.14,0,0,1-51,15.5c-1.32.25-2.6.63-4.89,1.19.9,10.72,1.15,21.56,2.84,32.22C7.43,91.64,17.78,116.51,36,138.65a160.76,160.76,0,0,0,48.82,40c4.84,2.59,8.37,2.37,13-.32,34.12-19.72,57.7-46.52,71.7-79.77C178.47,77.37,182.14,55.42,181.58,32.52ZM40.88,60c1.43,0,2.86,0,4.28,0,.83,0,.85,0,1.1-.82.44-1.38.88-2.77,1.32-4.15.06-.2.16-.39.3-.72.13.28.2.4.24.53l1.44,4.35c.25.75.28.78,1.06.78h4.21c.29,0,.57,0,.86.06l.05.17c-.2.17-.39.35-.6.5l-3.52,2.57c-.59.43-.58.44-.36,1.12q.7,2.14,1.4,4.29c.06.18.08.37.17.76-.4-.24-.65-.37-.88-.54l-3.42-2.45c-.59-.42-.6-.43-1.17,0l-3.45,2.54c-.21.16-.44.3-.66.44l-.14-.09a5.39,5.39,0,0,1,.12-.6c.44-1.41.89-2.82,1.33-4.23.23-.75.23-.76-.42-1.22l-3.47-2.51c-.2-.14-.37-.31-.57-.47C40.33,59.87,40.63,60,40.88,60Zm-4,34.49a.9.9,0,0,1,0-.85c.43-1.39.87-2.77,1.29-4.16.23-.75.22-.75-.43-1.22L34.2,85.69c-.18-.13-.34-.27-.54-.43.26-.3.55-.24.8-.24,1.35,0,2.7,0,4.06-.07,1.15,0,1,.12,1.39-1s.82-2.58,1.23-3.86c.07-.22.17-.44.26-.66h.17c.1.24.21.48.3.73.46,1.35.91,2.71,1.37,4.06.24.71.24.72,1,.71l4.28-.06c.26,0,.52,0,.78.05l.05.17c-.2.17-.39.36-.6.52l-3.48,2.62c-.58.44-.58.44-.35,1.12.45,1.38.91,2.76,1.36,4.14.07.2.1.42.2.82a7.37,7.37,0,0,1-.69-.37l-3.68-2.6c-.52-.37-.53-.36-1,0L37.54,94C37.32,94.14,37.1,94.28,36.85,94.45Zm18.89,15.8-3.48,2.63c-.6.45-.6.46-.35,1.17.43,1.26.87,2.51,1.3,3.76.12.35.21.7.37,1.24a6.41,6.41,0,0,1-.65-.33l-3.76-2.62c-.62-.43-.63-.43-1.24,0l-3.42,2.58c-.19.14-.4.27-.62.42-.21-.34,0-.59,0-.84.41-1.37.83-2.73,1.25-4.1.23-.75.23-.76-.43-1.23l-3.44-2.42c-.21-.15-.41-.33-.61-.49l.05-.18c.26,0,.51-.08.77-.09l4.13-.07c.89,0,.89,0,1.15-.83.42-1.36.84-2.73,1.26-4.09a1.42,1.42,0,0,1,.4-.67c.08.19.18.38.25.58L50.19,109c.22.63.22.64.91.64,1.45,0,2.91,0,4.36,0h.76C56.24,110,55.95,110.1,55.75,110.25Zm51.73-68.39c.29,0,.58,0,.87,0l4.13,0c.75,0,.78,0,1-.74l1.29-4c.07-.23.17-.45.3-.81a3.35,3.35,0,0,1,.32.53c.39,1.19.76,2.38,1.15,3.57a11.86,11.86,0,0,0,.47,1.1c.14.31.42.32.7.32l2.78,0,1.88,0a5.08,5.08,0,0,1,.63.07l0,.15c-.18.15-.36.31-.55.46L119,45c-.61.46-.6.47-.36,1.19l1.42,4.2c.05.16.08.32.13.49-.3.17-.46,0-.62-.16l-3.64-2.53c-.65-.45-.67-.45-1.31,0l-3.45,2.54c-.19.14-.4.27-.59.4l-.14-.09c0-.23.08-.46.15-.68.43-1.41.87-2.83,1.3-4.24.2-.65.18-.67-.35-1.06l-3.61-2.58c-.18-.13-.33-.28-.49-.43ZM83.85,35.23c1.23,0,2.45,0,3.68,0s1.17.08,1.56-1.13.83-2.57,1.25-3.86a1,1,0,0,1,.38-.54c.1.24.22.47.3.71q.66,1.92,1.3,3.84c.32,1,.32,1,1.3,1h4c.26,0,.52,0,.78.06l.05.17c-.17.16-.34.33-.52.47l-3.38,2.5c-.67.49-.67.5-.39,1.31q.67,2,1.33,4c.07.22.11.46.19.84a5,5,0,0,1-.58-.28l-3.68-2.6c-.67-.47-.67-.45-1.3,0-1.21.88-2.44,1.76-3.66,2.63a4.66,4.66,0,0,1-.59.28c.09-.4.13-.66.21-.91.42-1.34.84-2.68,1.26-4,.21-.68.2-.71-.38-1.12L83.2,35.88c-.15-.11-.29-.25-.49-.42A1.85,1.85,0,0,1,83.85,35.23ZM58.18,42.3c.19-.36.47-.26.7-.26,1.4,0,2.8,0,4.21,0,1.08,0,1.07,0,1.4-1.06q.61-1.9,1.23-3.79c.08-.25.2-.48.3-.72h.17c.09.22.18.44.26.66.45,1.36.88,2.71,1.33,4.07C68,42,68.1,42,69,42l4.43,0a7,7,0,0,1,.76.1c-.34.28-.53.46-.73.61l-3.58,2.62c-.57.42-.57.42-.35,1.12l1.4,4.36c0,.14.06.28.13.6a7,7,0,0,1-.65-.35L66.82,48.5c-.69-.49-.69-.49-1.36,0l-3.72,2.68c-.12.08-.25.15-.4.24-.21-.32,0-.56,0-.8.4-1.29.82-2.58,1.23-3.86.32-1,.31-1-.58-1.64l-3.32-2.34C58.53,42.63,58.36,42.45,58.18,42.3ZM74.56,128c-1.25.93-2.5,1.84-3.74,2.77-.57.43-.56.44-.34,1.12L71.81,136c.07.23.13.47.2.74-.39.08-.58-.15-.78-.3l-3.56-2.52c-.55-.39-.55-.4-1.11,0L63,136.52c-.21.15-.44.28-.66.42l-.14-.1c.06-.26.1-.52.18-.77.43-1.36.86-2.72,1.29-4.08.23-.75.23-.76-.42-1.23l-3.67-2.62a1,1,0,0,1-.38-.52c.26,0,.52-.06.78-.06l4.28,0c.85,0,.85,0,1.11-.81.44-1.36.88-2.72,1.32-4.07.07-.22.18-.44.27-.66h.17c.08.22.18.43.25.66.46,1.38.92,2.76,1.38,4.13.24.72.25.72,1,.72l4.43-.05c.24,0,.48,0,.89.07C74.83,127.76,74.71,127.9,74.56,128Zm24.36,6-3.49,2.61c-.58.43-.59.48-.36,1.19L96.45,142c.07.23.12.46.23.87-.33-.18-.5-.25-.65-.35l-3.68-2.6c-.64-.45-.65-.45-1.3,0l-3.57,2.62c-.19.14-.4.26-.6.38l-.14-.1c.05-.23.09-.46.15-.69.44-1.41.89-2.82,1.33-4.23.22-.7.21-.75-.39-1.19-1.15-.84-2.32-1.66-3.47-2.5-.21-.15-.4-.32-.6-.49l.06-.18c.26,0,.52-.05.78-.06,1.45,0,2.9,0,4.35-.07.72,0,.73,0,.95-.71.46-1.4.91-2.81,1.36-4.21.07-.21.16-.41.3-.76a4.53,4.53,0,0,1,.33.59c.49,1.45,1,2.89,1.46,4.34.22.67.25.7.95.7l4.36,0c.24,0,.48,0,.72,0l.09.21C99.28,133.75,99.11,133.91,98.92,134.05Zm.88-36.44q-4.17,6.17-8.38,12.31a5.62,5.62,0,0,1-8.32.86c-2.55-2.48-5.21-4.9-7.78-7.25l-3.32-3L70.42,99c-1.28-1.19-2.56-2.39-3.87-3.55a5.08,5.08,0,0,1-1.61-3.55A5.38,5.38,0,0,1,66.29,88a5.65,5.65,0,0,1,3.9-1.81h.21A5.24,5.24,0,0,1,74,87.61c2.61,2.43,5.25,4.82,7.88,7.22l1.88,1.71a5.46,5.46,0,0,0,.84.6l.29.18,1.24.83,7.6-11.22q3.25-4.81,6.5-9.61,1.57-2.32,3.17-4.62c1.45-2.1,2.9-4.21,4.33-6.33a5.51,5.51,0,0,1,9.8,1.39c.6,1.8.2,3.5-1.33,5.69s-3,4.42-4.51,6.58L111,81l-5.52,8.17Zm24,29.57-3.67,2.75c-.58.43-.59.44-.36,1.12.45,1.33.91,2.65,1.36,4,.09.27.16.56.25.87-.41.08-.6-.15-.81-.3l-3.46-2.39c-.73-.5-.74-.5-1.43,0l-3.37,2.51c-.19.14-.4.28-.6.41-.25-.25-.12-.46-.06-.66.4-1.32.81-2.63,1.21-3.95.05-.17.1-.34.16-.5a.69.69,0,0,0-.33-.89c-1.23-.86-2.44-1.75-3.66-2.63-.19-.13-.36-.29-.54-.43l.06-.16c.21,0,.42-.07.63-.07l4.36-.09c.8,0,.81,0,1.06-.78.45-1.38.89-2.77,1.33-4.15.06-.19.13-.37.2-.55l.2,0c.11.26.25.52.34.78.44,1.28.86,2.56,1.31,3.84.28.8.3.79,1.12.79l4.21,0c.26,0,.53,0,1,.05A5.9,5.9,0,0,1,123.76,127.19Zm2.09-67.62.06-.17c.24,0,.47-.06.71-.07l4.36-.07c.65,0,.67,0,.88-.68.44-1.36.87-2.72,1.3-4.08.07-.23.16-.46.27-.74.36.2.38.52.48.78.45,1.27.88,2.56,1.32,3.84.31.89.31.88,1.28.88l4,0h.83c0,.42-.25.5-.43.64l-3.56,2.64c-.55.41-.56.42-.35,1.05.34,1,.71,2,1,3.06.2.58.37,1.18.6,1.95a6.54,6.54,0,0,1-.67-.35l-3.56-2.52c-.73-.51-.73-.51-1.43,0l-3.39,2.49c-.2.14-.41.27-.61.4l-.18-.11c.18-.61.36-1.23.55-1.84.32-1,.64-2.06.95-3.09.18-.6.17-.61-.35-1L126.4,60C126.21,59.88,126,59.72,125.85,59.57Zm15.81,49.54-3.38,2.51c-.9.66-.72.58-.43,1.48.42,1.29.86,2.56,1.29,3.85.08.25.14.51.27.95-.33-.18-.5-.25-.65-.35L135,114.9c-.58-.41-.59-.41-1.18,0l-3.44,2.54c-.21.16-.44.29-.66.43l-.14-.1c0-.23.08-.47.15-.69q.63-2.09,1.28-4.17c.21-.69.22-.69-.36-1.11L127,109.2a5.24,5.24,0,0,1-.4-.36c.23-.35.56-.25.83-.25,1.35,0,2.7,0,4.06,0,.91,0,.92,0,1.2-.89.42-1.31.83-2.63,1.24-3.94.08-.25.19-.49.34-.9.16.34.25.51.31.68.5,1.44,1,2.89,1.48,4.34.22.63.22.63.9.63l4.36,0c.26,0,.52,0,.78,0l.06.17C142,108.81,141.85,109,141.66,109.11Zm6.12-25-3.3,2.49c-.12.09-.23.19-.36.28a.71.71,0,0,0-.28,1c.49,1.37,1,2.74,1.42,4.12.08.25.14.51.21.76l-.13.1c-.18-.1-.37-.2-.54-.31L141.28,90c-.75-.52-.74-.51-1.49.05l-3.31,2.47c-.17.13-.37.23-.71.43a6.53,6.53,0,0,1,.12-.75q.6-2,1.21-4c.27-.9.27-.89-.48-1.41L133,84.31a7.4,7.4,0,0,1-.56-.52c.44,0,.69-.08,1-.09l4.36-.11c.71,0,.71,0,.93-.72.43-1.36.84-2.73,1.27-4.09.07-.23.16-.46.31-.87.16.32.26.47.32.63.51,1.44,1,2.88,1.53,4.32.22.63.24.65.92.64l4.36-.06c.24,0,.48,0,.92.05A6.68,6.68,0,0,1,147.78,84.07Z"/></svg>